<?xml version="1.0" standalone="no"?>
<!DOCTYPE svg PUBLIC "-//W3C//DTD SVG 20010904//EN"
 "http://www.w3.org/TR/2001/REC-SVG-20010904/DTD/svg10.dtd">
<svg version="1.0" xmlns="http://www.w3.org/2000/svg"
 width="1280.000000pt" height="1280.000000pt" viewBox="0 0 1280.000000 1280.000000"
 preserveAspectRatio="xMidYMid meet">
<metadata>
Created by potrace 1.14, written by Peter Selinger 2001-2017
</metadata>
<g transform="translate(0.000000,1280.000000) scale(0.100000,-0.100000)"
fill="#000000" stroke="none">
<path d="M9978 9675 c-2 -2 -25 -5 -53 -8 -108 -12 -233 -43 -415 -102 -107
-34 -198 -71 -150 -60 142 31 314 44 396 29 191 -35 264 -189 202 -419 -136
-500 -796 -1326 -1783 -2231 -66 -60 -129 -116 -140 -124 -11 -8 12 15 50 50
258 239 648 631 794 799 10 12 46 52 80 90 297 331 577 726 706 996 121 252
149 423 88 545 -74 147 -243 184 -568 124 -153 -28 -475 -142 -620 -220 -345
-185 -723 -413 -1207 -729 -63 -41 -63 -41 -10 -103 l28 -34 79 51 c106 66
393 239 475 285 36 20 72 41 80 46 24 15 400 203 455 227 364 160 615 191 678
84 25 -42 27 -88 7 -167 -67 -261 -407 -711 -975 -1289 l-130 -132 -95 2 c-52
1 -102 -2 -111 -6 -12 -6 -15 -26 -14 -108 l1 -101 -105 -97 c-58 -54 -112
-105 -121 -113 -9 -8 -56 -51 -106 -95 -49 -44 -107 -97 -129 -117 -70 -64
-100 -85 -92 -65 6 16 -7 17 -206 15 l-212 -3 0 -191 0 -191 -30 -25 c-17 -14
-63 -53 -104 -87 -40 -33 -76 -61 -80 -61 -3 0 -6 64 -6 143 1 78 -1 147 -3
154 -3 9 -74 12 -281 12 l-277 1 0 -280 c0 -188 3 -280 11 -281 5 -1 62 -1
124 0 l115 0 -25 -22 c-69 -64 -856 -639 -894 -654 -11 -4 -14 14 -13 84 0 48
0 96 -1 106 -1 16 -18 17 -206 17 l-204 0 -3 -196 c-2 -108 0 -201 4 -207 3
-6 27 -10 52 -10 25 1 46 -3 46 -7 0 -17 -482 -311 -735 -448 -396 -214 -681
-324 -877 -338 -155 -12 -214 29 -212 146 1 69 6 95 17 106 4 4 7 14 7 22 0
41 122 255 233 407 69 95 204 265 252 319 6 6 43 49 84 96 106 122 284 312
445 472 l138 140 -23 25 c-61 67 -55 64 -86 36 -47 -42 -421 -414 -523 -519
-162 -168 -402 -431 -492 -539 -18 -22 -43 -51 -55 -65 -60 -68 -228 -279
-308 -385 -398 -528 -580 -935 -525 -1167 10 -41 24 -63 65 -104 74 -74 138
-93 300 -89 66 2 129 6 140 8 11 3 40 8 65 12 43 6 100 22 255 67 300 89 810
326 1283 596 78 45 146 82 151 82 5 0 11 3 13 8 2 4 48 34 103 66 194 115 785
493 805 516 7 7 89 60 94 60 2 0 3 -47 3 -104 0 -57 3 -108 6 -113 3 -5 63 -8
134 -8 l128 0 1 133 0 132 -50 1 c-28 0 -75 0 -103 -1 -29 -1 -53 1 -53 3 0 6
360 262 368 262 4 0 7 -31 7 -70 l0 -70 251 -3 251 -2 -1 252 c-1 247 -1 253
-21 250 -11 -2 39 41 110 97 72 55 133 101 137 101 4 0 5 -9 3 -20 -4 -19 2
-20 206 -20 160 0 209 3 210 13 0 6 0 93 0 192 l0 180 57 45 c31 25 70 57 87
71 166 146 325 277 328 271 2 -4 3 -82 3 -174 l-1 -168 316 0 c245 0 318 3
321 13 3 10 2 557 -1 608 -1 15 -18 17 -148 17 -82 -1 -148 3 -148 8 0 5 32
38 70 73 114 105 334 311 403 379 35 34 66 62 68 62 2 0 4 -71 4 -158 l0 -159
160 0 160 0 1 31 c0 37 0 207 0 256 l-1 35 -155 0 c-86 -1 -154 2 -153 6 2 5
95 102 208 216 113 115 255 262 315 328 61 65 117 126 125 134 8 9 44 50 80
91 36 40 72 81 80 90 45 49 204 240 291 350 459 577 698 1057 647 1295 -31
144 -138 214 -335 219 -46 2 -84 2 -85 1z m-1968 -2938 c0 -2 -10 -12 -22 -23
l-23 -19 19 23 c18 21 26 27 26 19z m-1620 -1341 c0 -2 -8 -10 -17 -17 -16
-13 -17 -12 -4 4 13 16 21 21 21 13z m-85 -65 c-20 -18 -342 -255 -440 -322
-121 -85 -277 -191 -355 -243 -47 -31 -89 -59 -95 -64 -38 -29 -512 -322 -521
-322 -4 0 -26 -13 -51 -30 -24 -16 -46 -30 -48 -30 -2 0 -30 -15 -62 -34 -116
-67 -162 -91 -378 -201 -295 -149 -408 -198 -630 -275 -419 -145 -686 -138
-771 20 -25 47 -25 190 0 275 41 138 160 355 313 570 93 132 124 167 70 80
-23 -38 -52 -88 -64 -110 -11 -22 -36 -69 -55 -105 -19 -36 -49 -110 -68 -165
-30 -87 -34 -113 -35 -200 0 -78 4 -108 18 -137 81 -163 319 -190 697 -81 47
13 92 26 100 28 19 4 159 53 185 65 11 5 85 36 165 70 179 76 487 229 665 330
446 254 943 577 1310 854 64 48 82 58 50 27z"/>
<path d="M8019 8515 c0 -8 -1 -54 -2 -102 l-1 -88 107 -3 106 -3 0 106 0 105
-104 0 c-86 0 -105 -3 -106 -15z"/>
<path d="M6658 8458 c-2 -18 -2 -75 0 -125 l3 -93 122 3 122 2 1 123 0 122
-122 0 -123 0 -3 -32z"/>
<path d="M5171 8460 c-5 -11 -7 -651 -2 -681 1 -3 157 -6 349 -5 l347 1 1 348
c0 191 -2 347 -5 348 -3 1 -158 2 -344 2 -293 2 -340 0 -346 -13z"/>
<path d="M6076 8461 c-1 -3 -2 -51 -2 -106 l1 -100 105 0 105 0 0 105 0 105
-103 1 c-56 0 -104 -2 -106 -5z"/>
<path d="M6319 8072 c-11 -2 -14 -32 -13 -173 1 -93 4 -172 7 -175 5 -6 337
-7 343 -1 4 3 6 151 5 282 l-1 70 -163 0 c-90 0 -170 -1 -178 -3z"/>
<path d="M7124 7910 l1 -105 105 0 105 0 0 98 c0 54 -2 101 -5 105 -3 4 -51 7
-106 7 l-102 0 2 -105z"/>
<path d="M7810 7835 l0 -134 133 0 132 0 1 134 0 135 -133 0 -133 0 0 -135z"/>
<path d="M4553 7942 l-23 -3 0 -213 0 -213 213 1 212 1 3 213 c2 197 1 212
-15 213 -60 3 -372 3 -390 1z"/>
<path d="M6730 7270 c0 -345 1 -370 18 -371 101 -3 715 0 719 4 3 3 5 169 5
369 l1 363 -372 3 -371 2 0 -370z"/>
<path d="M6049 7516 c-1 0 -3 -57 -4 -126 l-2 -125 127 -1 127 0 0 126 1 126
-124 1 c-68 0 -125 0 -125 -1z"/>
<path d="M5319 7470 c-6 -31 -2 -383 5 -388 8 -4 244 -6 361 -3 l30 1 -2 167
c-1 93 -2 182 -2 198 l-1 30 -195 0 c-107 0 -195 -2 -196 -5z"/>
<path d="M4642 7098 l3 -173 170 0 170 0 3 173 2 172 -175 0 -175 0 2 -172z"/>
<path d="M6048 6972 c-12 -2 -15 -28 -14 -163 l0 -159 160 2 160 3 1 153 c0
85 -4 156 -9 160 -9 5 -271 9 -298 4z"/>
<path d="M4320 6737 l0 -88 87 3 87 3 1 78 c0 43 -2 82 -5 85 -3 4 -42 8 -87
8 l-83 0 0 -89z"/>
<path d="M5365 6730 l-30 -5 0 -275 0 -275 280 0 280 0 0 278 c0 180 -3 277
-10 277 -80 4 -498 4 -520 0z"/>
<path d="M4610 6340 l0 -200 200 0 200 0 0 200 0 200 -200 0 -200 0 0 -200z"/>
<path d="M8689 6348 c-5 -10 -6 -208 -1 -209 42 -6 195 -2 201 6 6 8 7 163 2
198 -1 6 -199 11 -202 5z"/>
<path d="M5202 5942 c-22 -3 -23 -5 -20 -135 l3 -132 130 0 130 0 3 133 c2
102 0 132 -10 133 -43 3 -217 3 -236 1z"/>
<path d="M8664 5731 c-2 -2 -4 -75 -4 -161 l0 -156 160 -1 160 -1 0 162 0 161
-156 0 c-86 0 -158 -2 -160 -4z"/>
<path d="M7774 5640 l-51 -5 0 -158 0 -157 161 2 161 3 0 154 c0 93 -4 155
-10 157 -17 7 -206 9 -261 4z"/>
<path d="M4261 5502 c-7 -2 -11 -47 -11 -128 l0 -124 128 0 128 0 -2 118 c0
64 -2 122 -2 127 -2 9 -215 16 -241 7z"/>
<path d="M8349 5126 c-1 -1 -2 -97 -3 -213 l-1 -213 100 -1 c157 -1 319 1 323
5 3 3 6 349 3 402 -1 20 -6 20 -211 20 -115 0 -211 0 -211 0z"/>
<path d="M7429 5108 c-4 -8 -4 -535 -1 -545 3 -10 68 -13 281 -13 l277 0 0
280 0 280 -278 0 c-153 0 -278 -1 -279 -2z"/>
<path d="M6870 4835 c0 -93 2 -105 18 -106 75 -3 184 0 189 5 4 3 7 51 7 106
l1 100 -107 0 -108 0 0 -105z"/>
<path d="M7817 4335 c-3 -9 -1 -319 2 -337 0 -5 80 -8 176 -8 l175 0 -2 177
-3 177 -172 1 c-107 0 -174 -4 -176 -10z"/>
<path d="M6824 4261 c-2 -2 -4 -82 -4 -178 l0 -173 178 0 179 0 0 178 0 177
-174 0 c-96 0 -177 -2 -179 -4z"/>
<path d="M6170 4000 l0 -135 132 0 133 1 2 132 c2 117 0 132 -15 133 -9 1 -70
2 -134 3 l-118 1 0 -135z"/>
</g>
</svg>
